# xmcd
#
# Track frame offsets:
#	150
#	18652
#	36259
#	51371
#	64620
#	86457
#	101444
#	123891
#	139348
#	151858
#	168627
#	184557
#	196099
#	213233
#	230715
#	244455
#	255054
#	277649
#
# Disc length: 3919 seconds
#
# Revision: 1
# Processed by: cddbd v1.4PL0 Copyright (c) Steve Scherf et al.
# Submitted via: audiograbber 1.81.02
#
DISCID=ed0f4d12
DTITLE=Big Bill Broonzy - An evening with Big Bill Broonzy, vol. 2
DYEAR=1956
DGENRE=Blues
TTITLE0=I'm going down the road
TTITLE1=This train
TTITLE2=Bill Bailey won't you please come home
TTITLE3=A shanty in old shanty town
TTITLE4=Hey, bub blues
TTITLE5=Glory of love
TTITLE6=Careless love
TTITLE7=I gets the blues when it rains
TTITLE8=My name is William Lee Conley Broonzy
TTITLE9=Take this hammer
TTITLE10=See see rider
TTITLE11=Diggin' my potatoes
TTITLE12=Midnight special
TTITLE13=Keep your hands off her
TTITLE14=I got a girl
TTITLE15=You better mind
TTITLE16=I love you so much
TTITLE17=Sixteen tons
EXTD=Big Bill Broonzy, sang og guitar\n1991. 1 cd, Mono\nForlag: Storyville\nOp
EXTD=stilling i folkebiblioteker: Blues\nLive-optagelse, Montmartre, København 
EXTD=4.-6. maj 1956\nStoryville STCD 8017\n\n
EXTT0=
EXTT1=
EXTT2=
EXTT3=
EXTT4=
EXTT5=
EXTT6=
EXTT7=
EXTT8=
EXTT9=
EXTT10=
EXTT11=
EXTT12=
EXTT13=
EXTT14=
EXTT15=
EXTT16=
EXTT17=
PLAYORDER=
